PathFileType	4	(X/Y/Z)	 s01c0302.trc
DataRate	CameraRate	NumFrames	NumMarkers	Units	OrigDataRate	OrigDataStartFrame	OrigNumFrames
200	200	4	48	mm	200	751	2000
Frame#	Time	racr			lacr			c7			jug			rlel			rdr			llel			ldr			s2			lic			ric			lasi			rasi			rpsi			lpsi			rgt			lgt			rth1			rth2			rth3			rth4			rlfc			rsh1			rsh2			rsh3			rsh4			rlmal			rmmal			rcal			rtoe			rmt5			lth1			lth2			lth4			lth3			llfc			lsh1			lsh2			lsh3			lsh4			llmal			lmmal			lcal			ltoe			lmt5			SBIKE			LBIKE			RBIKE			
		X1	Y1	Z1	X2	Y2	Z2	X3	Y3	Z3	X4	Y4	Z4	X5	Y5	Z5	X6	Y6	Z6	X7	Y7	Z7	X8	Y8	Z8	X9	Y9	Z9	X10	Y10	Z10	X11	Y11	Z11	X12	Y12	Z12	X13	Y13	Z13	X14	Y14	Z14	X15	Y15	Z15	X16	Y16	Z16	X17	Y17	Z17	X18	Y18	Z18	X19	Y19	Z19	X20	Y20	Z20	X21	Y21	Z21	X22	Y22	Z22	X23	Y23	Z23	X24	Y24	Z24	X25	Y25	Z25	X26	Y26	Z26	X27	Y27	Z27	X28	Y28	Z28	X29	Y29	Z29	X30	Y30	Z30	X31	Y31	Z31	X32	Y32	Z32	X33	Y33	Z33	X34	Y34	Z34	X35	Y35	Z35	X36	Y36	Z36	X37	Y37	Z37	X38	Y38	Z38	X39	Y39	Z39	X40	Y40	Z40	X41	Y41	Z41	X42	Y42	Z42	X43	Y43	Z43	X44	Y44	Z44	X45	Y45	Z45	X46	Y46	Z46	X47	Y47	Z47	X48	Y48	Z48	
751	3.7550	670.397959	1401.254003	-102.496127	715.532766	1345.631870	-423.415355	658.223164	1457.322190	-271.950297	649.052968	1294.112227	-259.764219	615.986022	1121.738458	-0.687524	738.043583	877.441006	-61.290128	665.181797	1081.874171	-541.139237	757.977224	871.322844	-465.643749	149.630442	1226.114567	-332.722035	318.825294	1209.025940	-452.727082	265.923160	1262.461315	-131.953396	311.736739	1160.243228	-422.930464	301.236319	1209.235562	-153.601573	151.315344	1277.558032	-260.847383	162.707058	1263.955811	-365.197086	224.433587	1163.348937	-94.309742	228.438669	1074.901406	-464.634621	326.790088	1086.483321	-64.725802	403.470072	1054.968517	-64.246990	484.593707	1015.367200	-64.662595	427.246452	1102.949574	-83.875763	563.945200	936.315881	-83.015452	495.981564	855.377288	-58.591855	442.110017	788.716227	-61.418426	379.063056	727.071280	-74.922203	480.093259	757.461004	-96.185996	273.475085	635.063106	-98.875045	318.325638	626.624852	-173.810505	221.033256	631.561327	-154.707991	422.288891	451.160963	-134.504070	321.267757	493.813637	-67.515744	237.685276	959.298761	-466.261847	272.616784	877.114533	-461.877680	322.186400	897.145571	-462.342565	299.243223	797.778743	-443.876555	320.630625	675.453789	-426.091953	246.605936	592.308189	-458.009732	217.401122	511.923752	-449.283457	185.189009	432.747322	-435.273013	271.105303	494.473368	-425.635939	144.908496	314.501043	-419.255792	150.591276	268.454694	-356.797980	97.191919	319.407350	-375.527937	289.949418	119.219383	-374.432471	197.805201	170.724387	-442.263523	-225.073329	892.979259	-254.338301	-12.773693	84.611327	-456.442212	-21.825083	81.464777	-56.292553	
752	3.7600	668.222691	1402.567952	-100.831709	716.443181	1344.014653	-420.749873	657.547539	1457.241697	-270.363577	647.855265	1294.035936	-257.716714	616.503748	1123.369053	-0.152355	738.041873	879.038364	-59.924409	664.249434	1081.147567	-540.668629	757.852261	871.200039	-465.855051	149.020132	1226.439601	-335.622232	318.263920	1211.155099	-454.172435	264.769975	1262.738935	-132.066540	311.726446	1162.808465	-424.378424	300.528906	1209.831708	-154.039683	151.102171	1278.593179	-261.342132	162.175068	1265.480015	-365.640714	222.895118	1163.330024	-95.931555	228.572435	1077.125020	-465.932738	324.220780	1084.851190	-67.510019	400.862436	1053.048525	-66.143884	481.825386	1013.206376	-66.445522	424.496428	1101.354827	-85.228427	562.885852	933.045511	-85.314932	494.373729	851.096105	-60.510189	441.068784	784.018281	-63.033226	378.551404	721.887676	-75.850651	479.356676	752.741768	-97.417905	274.936503	627.698993	-98.173232	319.261620	621.109623	-173.791094	221.630489	622.014699	-153.680914	431.532048	452.251692	-133.910059	328.558015	488.945717	-66.871186	240.494742	961.084699	-467.196290	276.378372	879.294090	-462.120606	325.792193	899.875798	-462.578475	303.584683	800.299111	-444.071166	323.729796	677.250808	-426.807071	247.756197	595.345330	-458.384716	216.492156	515.814246	-449.398749	182.392747	437.465763	-435.210621	269.831053	497.088089	-425.669901	138.949213	320.282756	-419.386279	124.019881	288.037066	-372.014033	91.027958	325.923559	-375.346936	279.633757	121.837747	-374.685161	188.642133	175.332136	-442.344713	-225.163078	893.007684	-254.387088	-12.800096	84.610875	-456.452633	-21.863265	81.495753	-56.321557	
753	3.7650	666.315301	1403.475470	-99.280905	717.152810	1342.359537	-417.965880	656.885965	1457.122951	-268.761288	646.614723	1293.884923	-255.898123	617.178891	1124.755807	-0.306514	737.844887	879.450141	-59.895518	663.114002	1080.201183	-540.174604	757.685394	870.981304	-465.841470	148.467692	1226.597522	-338.083776	317.492972	1213.519291	-455.638533	263.788778	1262.839599	-132.223329	311.113754	1164.887491	-425.664947	300.033522	1210.248857	-154.280773	150.970791	1279.296608	-261.490027	161.596996	1266.852816	-365.751691	221.490527	1162.556124	-97.483317	228.823914	1079.280286	-467.067654	321.984975	1082.598828	-69.665495	398.504665	1050.292963	-68.028450	479.254544	1009.929869	-68.440188	422.608945	1098.654693	-86.075260	561.318572	928.291073	-87.413883	492.049758	845.711648	-62.305686	439.273477	778.322245	-64.661995	377.446025	715.390435	-76.950755	477.925763	746.988020	-98.519160	275.978422	619.585242	-97.773555	319.769684	614.676666	-173.841593	222.218962	611.066371	-152.513561	440.744030	452.435102	-133.584343	335.789408	483.348707	-66.015895	243.551156	962.663064	-467.958563	280.444120	881.565871	-462.250195	329.504672	902.752048	-462.386348	308.553738	802.809931	-444.187163	327.527943	678.945003	-427.711968	249.458827	598.538239	-458.733505	215.991823	519.924535	-449.486754	179.869281	442.614319	-435.169619	268.955000	499.816474	-425.732081	133.146896	326.579832	-419.415632	107.320898	291.686026	-362.466726	85.099620	332.916858	-375.203597	269.571620	125.047860	-374.815200	179.783709	180.482368	-442.383178	-225.267242	892.971785	-254.435707	-12.817882	84.609862	-456.464603	-21.886153	81.497464	-56.317592	
754	3.7700	664.777031	1403.953873	-97.867516	717.731704	1340.926959	-415.301272	656.230072	1456.954922	-267.173653	645.437544	1293.567969	-254.191775	617.936230	1125.543694	-0.901251	737.560600	879.689993	-60.087036	661.619980	1079.236069	-539.653560	757.527938	870.769598	-465.924806	147.968081	1226.597654	-340.119441	316.545992	1215.968595	-457.056827	263.321766	1262.640165	-132.331417	310.408339	1166.822318	-426.930265	299.638736	1210.212045	-154.786892	150.933975	1279.817000	-261.274718	161.038322	1268.068136	-365.687302	220.385472	1161.057331	-98.920774	229.104213	1081.287409	-468.185240	320.208947	1079.795414	-71.581837	396.543280	1046.757656	-69.774742	476.975007	1005.718553	-70.527983	421.119436	1095.280260	-86.803555	559.036282	922.438942	-89.872481	489.286025	839.516291	-64.266503	437.205698	771.709546	-66.228758	376.006754	708.023210	-77.909522	476.253561	740.200839	-99.522320	276.826116	610.208426	-97.466555	320.415878	606.626332	-174.147247	222.367715	599.300066	-151.706840	449.175854	452.075153	-133.128242	342.743169	477.074156	-65.226211	246.705810	963.996813	-468.595225	285.256494	883.571205	-462.183619	332.645039	905.393506	-461.507329	313.990863	805.289454	-444.269645	331.759128	680.560434	-428.358132	251.523178	601.764562	-458.857612	215.907185	524.193278	-449.636175	177.645997	448.057279	-435.269608	268.038209	502.775968	-425.637913	127.082794	334.244926	-420.651871	100.367732	282.886532	-334.106747	79.476584	340.383999	-375.112931	259.939408	128.920183	-375.001834	171.223585	186.163823	-442.395781	-225.304827	892.955487	-254.430832	-12.823461	84.604225	-456.471816	-21.899923	81.486418	-56.334948	
